{"title":"Khoobsurat (2014) - 1CD - DVDSCR-Rip - Hindi - x264 - MP3 - Mafi","uid":11060241,"size":744277360,"categoryP":"video","categoryS":"movies","magnet":"?xt=urn:btih:cf790a7514184eba3ff3804fbf3a6ef4823e6807&amp;dn=Khoobsurat+%282014%29+-+1CD+-+DVDSCR-Rip+-+Hindi+-+x264+-+MP3+-+Mafi&amp;tr=udp%3A%2F%2Ftracker.openbittorrent.com%3A80&amp;tr=udp%3A%2F%2Fopen.demonii.com%3A1337&amp;tr=udp%3A%2F%2Ftracker.coppersurfer.tk%3A6969&amp;tr=udp%3A%2F%2Fexodus.desync.com%3A6969","seeders":1,"leechers":0,"uploader":"inovai","files":3,"time":1411160818,"description":"Khoobsurat (2014) - 1CD - DVDSCR-Rip - Hindi - x264 - MP3 - Mafiaking - TeamTNT\n\nCover:\n &lt;a href=&quot;\nhttp://forum.primetimeshow.in/viewtopic.php?f=7&amp;t=701&quot; rel=&quot;nofollow&quot; target=&quot;_NEW&quot;&gt;\nhttp://forum.primetimeshow.in/viewtopic.php?f=7&amp;t=701&lt;/a&gt;\n\n\nGENRE: Comedy | Romance\n\nScreenshots:\n &lt;a href=&quot;\nhttp://m.primetimeshow.in/share-4EE6_541C7CD0.html&quot; rel=&quot;nofollow&quot; target=&quot;_NEW&quot;&gt;\nhttp://m.primetimeshow.in/share-4EE6_541C7CD0.html&lt;/a&gt;\n &lt;a href=&quot;\nhttp://m.primetimeshow.in/share-649C_541C7CD0.html&quot; rel=&quot;nofollow&quot; target=&quot;_NEW&quot;&gt;\nhttp://m.primetimeshow.in/share-649C_541C7CD0.html&lt;/a&gt;\n &lt;a href=&quot;\nhttp://m.primetimeshow.in/share-9CA0_541C7CD0.html&quot; rel=&quot;nofollow&quot; target=&quot;_NEW&quot;&gt;\nhttp://m.primetimeshow.in/share-9CA0_541C7CD0.html&lt;/a&gt;\n &lt;a href=&quot;\nhttp://m.primetimeshow.in/share-DBB8_541C7CD0.html&quot; rel=&quot;nofollow&quot; target=&quot;_NEW&quot;&gt;\nhttp://m.primetimeshow.in/share-DBB8_541C7CD0.html&lt;/a&gt;\n &lt;a href=&quot;\nhttp://m.primetimeshow.in/share-C358_541C7CD0.html&quot; rel=&quot;nofollow&quot; target=&quot;_NEW&quot;&gt;\nhttp://m.primetimeshow.in/share-C358_541C7CD0.html&lt;/a&gt;\n\nGeneral\nUnique ID : 192872388534489915744705676135013154548 (0x9119DEF02EECEB91AE35131B636DFEF4)\nComplete name : Khoobsurat (2014) - 1CD - DVDSCR-Rip - Hindi - x264 - MP3 - Mafiaking - TeamTNT.mkv\nFormat : Matroska\nFormat version : Version 4 / Version 2\nFile size : 700 MiB\nDuration : 2h 6mn\nOverall bit rate : 772 Kbps\nMovie name : Khoobsurat (2014) - 1CD - DVDSCR-Rip - Hindi - x264 - MP3 - Mafiaking - TeamTNT\nEncoded date : UTC 2014-09-19 17:30:47\nWriting application : mkvmerge v7.0.0 ('Where We Going') 32bit built on Jun 9 2014 15:08:34\nWriting library : libebml v1.3.0 + libmatroska v1.4.1\n\n\nVideo\nID : 1\nFormat : AVC\nFormat/Info : Advanced Video Codec\nFormat profile : &lt;a class=&quot;__cf_email__&quot; href=&quot;/cdn-cgi/l/email-protection&quot; data-cfemail=&quot;feb6979996beb2ccd0cf&quot;&gt;[email&amp;#160;protected]&lt;/a&gt;&lt;script data-cfhash='f9e31' type=&quot;text/javascript&quot;&gt;\n/* &lt;![CDATA[ */!function(){try{var t=&quot;currentScript&quot;in document?document.currentScript:function(){for(var t=document.getElementsByTagName(&quot;script&quot;),e=t.length;e--;)if(t[e].getAttribute(&quot;data-cfhash&quot;))return t[e]}();if(t&amp;&amp;t.previousSibling){var e,r,n,i,c=t.previousSibling,a=c.getAttribute(&quot;data-cfemail&quot;);if(a){for(e=&quot;&quot;,r=parseInt(a.substr(0,2),16),n=2;a.length-n;n+=2)i=parseInt(a.substr(n,2),16)^r,e+=String.fromCharCode(i);e=document.createTextNode(e),c.parentNode.replaceChild(e,c)}t.parentNode.removeChild(t);}}catch(u){}}()/* ]]&gt; */&lt;/script&gt;\nFormat settings, CABAC : Yes\nFormat settings, ReFrames : 4 frames\nCodec ID : V_MPEG4/ISO/AVC\nDuration : 2h 6mn\nBit rate : 690 Kbps\nWidth : 640 pixels\nHeight : 272 pixels\nDisplay aspect ratio : 2.35:1\nFrame rate mode : Constant\nFrame rate : 25.000 fps\nColor space : YUV\nChroma subsampling : 4:2:0\nBit depth : 8 bits\nScan type : Progressive\nBits/(Pixel*Frame) : 0.159\nStream size : 613 MiB (88%)\nTitle : Mafiaking\nLanguage : Hindi\nDefault : Yes\nForced : No\n\n\nAudio\nID : 2\nFormat : MPEG Audio\nFormat version : Version 1\nFormat profile : Layer 3\nMode : Joint stereo\nMode extension : MS Stereo\nCodec ID : A_MPEG/L3\nCodec ID/Hint : MP3\nDuration : 2h 6mn\nBit rate mode : Constant\nBit rate : 80.0 Kbps\nChannel(s) : 2 channels\nSampling rate : 32.0 KHz\nCompression mode : Lossy\nStream size : 72.5 MiB (10%)\nTitle : Mafiaking\nWriting library : LAME3.99r\nLanguage : Hindi\nDefault : Yes\nForced : No\n\n\nSAMPLE WITH IN TORRENT\n\n\n\nThanks to Mafiaking @TeamTNT!!\n\nSeed n ENjoy!!\n","torrent":{"xt":"urn:btih:cf790a7514184eba3ff3804fbf3a6ef4823e6807","amp;dn":"Khoobsurat+%282014%29+-+1CD+-+DVDSCR-Rip+-+Hindi+-+x264+-+MP3+-+Mafi","amp;tr":["udp%3A%2F%2Ftracker.openbittorrent.com%3A80","udp%3A%2F%2Fopen.demonii.com%3A1337","udp%3A%2F%2Ftracker.coppersurfer.tk%3A6969","udp%3A%2F%2Fexodus.desync.com%3A6969"],"infoHash":"cf790a7514184eba3ff3804fbf3a6ef4823e6807","infoHashBuffer":{"type":"Buffer","data":[207,121,10,117,20,24,78,186,63,243,128,79,191,58,110,244,130,62,104,7]},"announce":[],"urlList":[]}}